
<svg xmlns="http://www.w3.org/2000/svg" version="1.1" xmlns:xlink="http://www.w3.org/1999/xlink" preserveAspectRatio="none" x="0px" y="0px" width="550px" height="400px" viewBox="0 0 550 400">
<defs>
<g id="Layer3_0_FILL">
<path fill="#000000" stroke="none" d="
M 354.15 138.75
Q 353.5080078125 137.234375 348.85 137 332.9408203125 128.6228515625 326.55 129.7 320.15703125 130.8171875 317.1 128.8
L 306 121.05 306 116.65
Q 308.7384765625 115.01796875 308.45 109.15 308.133984375 101.4001953125 298.1 96.65 288.6193359375 93.647265625 285.85 98.4 280.7166015625 103.3595703125 287.35 107.8 287.808203125 108.26015625 288.25 108.65 289.7189453125 112.4693359375 285.75 113.2 281.832421875 113.9390625 280.55 118.85 279.2642578125 123.8033203125 276.85 122.65 270.015625 112.61796875 248.55 116.75 241.1642578125 118.9083984375 240.65 113.85 237.45 106.2326171875 232.85 107.3 229.3552734375 107.9513671875 228.4 111.65
L 228.4 113.8
Q 226.0001953125 116.5798828125 226.05 122.25 206.9873046875 122.1921875 200.4 155.45
L 193.55 160.25
Q 188.408984375 159.5126953125 185.4 163.2 183.34609375 163.03828125 182.1 165.3 178.162890625 167.68828125 179.3 171.2 180.8197265625 173.539453125 187.05 173.95 191.0068359375 174.9640625 195.1 174.85 194.97109375 179.9736328125 195.35 184.15 191.954296875 185.7859375 189.35 189.35 186.908203125 189.65625 186.25 191.35 179.9515625 198.215234375 191 200.1 190.613671875 210.53984375 195.1 215.65 192.3072265625 216.9556640625 192.25 219.3
L 190.85 220.45
Q 183.5041015625 229.54765625 187 233.35 189.991796875 234.282421875 197.85 231.25 203.780078125 231.129296875 203.6 226.75
L 205.3 226.75
Q 207.4267578125 228.7234375 206.75 233.5 202.9923828125 263.7845703125 215.85 263.5 234.324609375 263.892578125 240.9 244.5 244.8779296875 259.315625 262.8 274.75 266.359765625 279.8939453125 276.25 279.75 286.1283203125 279.892578125 289.65 274.75 305.345703125 261.301171875 310.35 248.3 310.3626953125 254.608984375 315.4 257.9 320.51171875 261.2037109375 315.35 270.05 310.438671875 267.169140625 305.5 272.3 303.35 273.1765625 301.2 274.95 298.7458984375 278.30390625 301.35 280.55 303.9642578125 282.8451171875 307.7 283.3 319.0259765625 289.5888671875 323.2 276.95 330.75625 272.725 331.6 264.1 335.5779296875 264.9728515625 336.6 265.2 338.5734375 265.9982421875 340.2 267.9 341.8263671875 269.851953125 345.55 267.1
L 345.55 261.35
Q 347.08515625 256.325 345.05 251.05 343.8375 248.05703125 347.8 245.8 360.7859375 237.7556640625 356.75 221.2 359.0556640625 218.5484375 360.45 215.3 363.050390625 207.9732421875 360.35 202.55 358.084765625 197.941796875 359.8 195.65 360.70390625 195.6978515625 361.65 195.65 373.455859375 193.4830078125 368.9 185.95 364.3478515625 178.4556640625 368.6 174.05 373.545703125 161.1599609375 369 159.3 366.2712890625 158.3578125 361.7 161.9
L 352.35 164.05
Q 351.061328125 160.692578125 346.2 159.05
L 346.2 153.4
Q 346.02734375 148.76640625 350.5 148 350.9408203125 147.994140625 351.35 147.9 354.2421875 147.448828125 357.1 145.45 360.119140625 142.85 357.35 140.9 354.790234375 140.314453125 354.15 138.75
M 349.3 141.7
L 349.35 141.8
Q 349.35 141.9 349.35 142.05 347.6 142.95 345.8 141.1
L 346.3 140.3
Q 348.934765625 141.1009765625 349.3 141.7
M 367.1 165.2
Q 368.075 164.1068359375 369.05 164.2
L 367.1 166.2 367.1 165.2
M 336.65 261.65
Q 338.148828125 261.75078125 338.2 263.3 337.44375 263.45625 336.65 261.65
M 237.25 111.1
Q 237.0390625 110.720703125 237.2 110.6 237.85 110.85 238.2 111.4 238.2 112.15 237.2 112.6 237.4609375 111.479296875 237.25 111.1
M 184.75 169.3
Q 186 168.5 186.85 169.05 187 169.7 186.05 170.1 184.5 170.6 184.2 169.8
L 184.75 169.3
M 188.15 195.4
Q 188.5 195.1 188.8 195 190.9029296875 194.3947265625 190.35 195.8 189.9515625 196.7017578125 187.8 195.9 187.8 195.7 188.15 195.4
M 300.7 103.3
Q 301 103.6 301 104 301 104.4 300.7 104.7 300.3978515625 105 300.15 105 299.9544921875 105.000390625 300 104.65 300.097265625 104.29921875 299.85 103.9 299.6505859375 103.5005859375 299.6 103.25 299.6001953125 102.9994140625 300 103 300.4 103 300.7 103.3
M 290.35 105.25
L 290.65 104.55
Q 291.8 104.55 292.9 105.3 293.1 105.35 293.3 105.5 293.4 105.65 293.35 105.7 293.1 106.1 292.75 106.4 291.45 106.492578125 290.35 105.25
M 305.5 217
Q 306.9982421875 218.35703125 307.1 218.6
L 305.6 217.75
Q 304.8212890625 217.474609375 303.95 217.25 304.0060546875 217.3607421875 303.95 217.45 302.115234375 224.684765625 294.6 223.25 287.579296875 221.88828125 287.7 217.55 285.965625 217.8291015625 285.2 218
L 285.15 218
Q 284.8412109375 218.317578125 284.25 218.8 283.4611328125 219.4439453125 282.95 220 283.1025390625 219.594921875 283.3 219.15 283.7712890625 218.1615234375 284.7 217.15 284.84140625 217.03046875 285 217 285.898046875 216.801171875 288.2 216.5 292.0359375 215.748046875 295.15 215.55
L 295.2 215.55
Q 295.9287109375 215.500390625 296.65 215.5
L 296.7 215.5
Q 296.7501953125 215.4984375 296.8 215.5 303.5494140625 215.3044921875 305.5 217
M 306.25 216.25
Q 306.1322265625 216.22578125 306 216.1 303.3404296875 213.80078125 299.4 214.15 299.4970703125 214.139453125 299.55 214.1 302.454296875 213.596875 306.55 215.25 310.896875 215.4365234375 312.25 214.2 310.3359375 216.8185546875 306.25 216.25
M 315.9 212.15
Q 315.378515625 211.4625 314.75 210.45 312.751953125 207.2384765625 308.2 206.55 303.6150390625 205.986328125 297.05 211.05 290.0755859375 216.422265625 285.9 216.05 282.2271484375 215.864453125 280.65 211.5 280.7205078125 211.642578125 280.8 211.8 282.2990234375 214.77265625 285.95 215.1 289.87421875 215.3275390625 296.45 210.25 303.4349609375 204.863671875 308.35 205.55 313.066015625 206.1740234375 315.9 212.15
M 287 222.7
L 287 222.7
Q 287.4017578125 222.85234375 287.9 223 291.0939453125 224.1236328125 295.65 224.85 300.94609375 225.60703125 303.6 223.05 303.869921875 222.7916015625 304.1 222.55 300.97734375 226.6228515625 295.5 225.85 290.71171875 225.08125 287 222.7
M 284.05 243.7
Q 284.8181640625 242.1169921875 284.15 240.1 283.9271484375 239.423046875 283.6 238.9 284.5076171875 239.5880859375 284.95 240.35 285.97578125 242.0271484375 284.95 244.15 284.27578125 245.574609375 282.95 247
L 282.95 247.05
Q 281.8900390625 248.1619140625 280.45 249.35
L 280.45 249.4
Q 274.288671875 253.8279296875 267.35 247.25
L 267.3 247.25
Q 265.8716796875 245.6873046875 265.15 244.15 264.1240234375 242.0271484375 265.15 240.35 265.773828125 239.275390625 267.25 238.4 266.5935546875 239.084375 266.1 240.2 265.27734375 242.1236328125 266.05 243.7 266.7220703125 245.1001953125 268.05 246.5
L 268.05 246.55
Q 274.3224609375 252.4640625 279.85 248.6 281.2037109375 247.4416015625 282.2 246.35
L 282.25 246.35
Q 283.430078125 245.0126953125 284.05 243.7
M 268.15 216.3
Q 268.209375 216.328125 268.25 216.35 268.962890625 216.73828125 270.45 218.4 271.9955078125 220.0537109375 272.6 222.3 273.0708984375 224.1443359375 272.7 235
L 272 226.05
Q 271.936328125 225.3734375 271.85 224.7 271.5521484375 222.3 271 220.9 270.493359375 219.5 269.8 218.6 269.133984375 217.7326171875 268.15 216.3
M 266.8 219.15
Q 267.1021484375 219.8181640625 267.25 220.45 266.726953125 219.7033203125 265.75 218.8 265.1861328125 218.3177734375 264.85 218 264.1076171875 217.826171875 262.35 217.55 262.5208984375 221.88828125 255.5 223.25 247.9845703125 224.684765625 246.1 217.45 246.1119140625 217.4267578125 246.1 217.35 246.013671875 217.4021484375 245.9 217.4 244.4208984375 217.8064453125 244.25 217.9 247.2248046875 215.215625 253.95 215.5
L 253.95 215.5
Q 254.8421875 215.500390625 255.75 215.6 258.52265625 215.8482421875 261.9 216.5 264.201953125 216.801171875 265.1 217 265.15078125 217.011328125 265.2 217 265.294140625 217.0669921875 265.35 217.15 266.3287109375 218.1615234375 266.8 219.15
M 264.1 215.1
Q 267.5501953125 214.800390625 269.1 212.3 267.5177734375 215.884765625 264.2 216.05 260.02421875 216.422265625 253.05 211.05 246.48125 205.9814453125 241.75 206.6 237.070703125 207.23359375 235.2 210.45 233.9384765625 212.6974609375 233.75 213.4 233.7134765625 213.2263671875 233.8 213.05 236.696875 206.2169921875 241.7 205.55 246.6650390625 204.863671875 253.65 210.25 260.2255859375 215.3275390625 264.1 215.1
M 277.9 221.65
Q 278.4501953125 219.5 279.55 218.35 280.69921875 217.25 281.65 216.4 282.6009765625 215.6 282 216.25 281.8 216.65 281.5 217.05 281 217.75 280.5 218.45 279.05 220.55 278.55 222.95 278.1 225.25 277.85 227.55 277.85 235.65 277.25 243.6 277.1 242.6 277.1 241.6 277.1 238.55 277 235.6 276.9 232.65 276.85 229.6 276.85 228.55 276.9 227.5 277.15 224.5 277.9 221.65
M 253 214.4
Q 252.8244140625 214.5283203125 252.6 214.45 247.401953125 213.2443359375 244.05 216.1 243.9677734375 216.22578125 243.8 216.25 240.11015625 216.771484375 238.2 214.6 239.9978515625 215.7142578125 243.55 215.25 249.274609375 213.480078125 252.1 214.1 252.6900390625 214.2529296875 253.1 214.35 253.0630859375 214.387890625 253 214.4
M 245.45 221.8
Q 245.4509765625 221.788671875 245.4 221.75 245.8787109375 222.2345703125 246.5 222.9 249.1544921875 225.605859375 254.25 224.85 259.387890625 224.16015625 262.2 223.1 262.6201171875 222.9392578125 262.95 222.8 259.3107421875 225.0935546875 254.55 225.85 248.6517578125 226.6896484375 245.45 221.8
M 274.65 255.25
Q 276.9685546875 256.8130859375 279.15 254.9 281.875 252.45703125 287.1 255.4
L 287.1 255.4
Q 288.8595703125 256.4859375 290.35 256.3 290.5193359375 256.2810546875 290.65 256.25
L 290.6 256.25
Q 288.6 257.5421875 286.55 256.25
L 286.6 256.25
Q 282.12421875 253.7423828125 279.8 255.65 277.0314453125 258.08671875 274.1 256.1 271.814453125 254.5595703125 269.75 256.2 267.734765625 257.884375 265.6 257.05 263.5240234375 256.2638671875 263.7 256.2
L 263.75 256.2
Q 263.9978515625 256.0408203125 265.8 256.4 267.608984375 256.762109375 269.4 255.25 271.6826171875 253.2453125 274.65 255.25
M 281.75 259.6
L 281.75 259.65
Q 284.5619140625 258.46640625 287.4 258.05 289.9228515625 257.694140625 292.1 256.2 294.3216796875 254.7087890625 294.4 254.6
L 294.45 254.5 294.5 254.6
Q 294.4205078125 254.52421875 292.3 256.55 290.24453125 258.5705078125 287.55 259 284.842578125 259.43203125 282.15 260.55
L 282.15 260.55
Q 278.4330078125 262.0865234375 274.35 260.8
L 274.3 260.8
Q 270.9177734375 259.641796875 266.35 259.05 262.1890625 258.5416015625 259.9 253.45 260.242578125 254.0484375 260.65 254.85 262.0982421875 257.4775390625 266.65 258.05 271.1880859375 258.6611328125 274.65 259.85
L 274.65 259.85
Q 278.366796875 261.01328125 281.75 259.6
M 265.05 261.2
Q 265.4 261.7 265.95 262.45 268.2 265.35 273.45 265.25
L 281.3 265.25
Q 287.7 264.05 289.1 262.15 287.2 265.5 281.45 266.25 281.4 266.25 281.35 266.25
L 273.45 266.25
Q 268.05 266.4 265.05 261.2
M 258.9 250.95
Q 258.917578125 250.9693359375 258.9 251 258.9078125 250.9671875 258.85 250.95
L 258.9 250.95
M 311.05 278.3
Q 312.3537109375 278.4275390625 312.65 278.6 312.37578125 279.385546875 311.45 279.5 310.5240234375 279.6150390625 309.1 279.15 309.7962890625 278.1724609375 311.05 278.3
M 191.3 229.6
L 190.8 231.05
Q 190.35 231.25 189.1 231.3 189.85 230.1 190.7 229.75 191 229.65 191.3 229.6 Z"/>
</g>
</defs>

<g transform="matrix( 1, 0, 0, 1, 0,0) ">
<use xlink:href="#Layer3_0_FILL"/>
</g>
</svg>
