<svg id="Layer_2" data-name="Layer 2" xmlns="http://www.w3.org/2000/svg" viewBox="0 0 473.14 250.74"><defs><style>.cls-1{fill:#fff;}.cls-2{fill:#9f1c20;}.cls-3{fill:#9b1c1f;}.cls-4{fill:none;stroke:#a21d21;stroke-miterlimit:10;}</style></defs><title>qz_wall</title><path class="cls-1" d="M142.84,74.91a66.26,66.26,0,0,1,8.08,1A61.2,61.2,0,0,1,161.76,79a58.15,58.15,0,0,0-11.24-4.57A63.91,63.91,0,0,0,136.66,72a59,59,0,0,0-44.29,15.2A58.91,58.91,0,0,0,71.85,129.3Q70.57,150,81.54,166.41a0.1,0.1,0,0,0,0,.07,68,68,0,0,0,11.82,13.38A58,58,0,0,0,110.09,190a61.17,61.17,0,0,1-6-3.76,65.53,65.53,0,0,1-19.57-22.42A58.71,58.71,0,0,1,78,132.16,58.91,58.91,0,0,1,98.55,90.11,59,59,0,0,1,142.84,74.91Z" transform="translate(-49.44 -49.69)"/><path class="cls-2" d="M292.64,62.46H272.45V170.11q0,7.51-3.6,11.11a12.11,12.11,0,0,1-8.93,3.53,12.27,12.27,0,0,1-8.93-3.53q-3.6-3.6-3.6-11.11V62.46H227.18V172a32.46,32.46,0,0,0,9.68,23.42,33.94,33.94,0,0,0,10.36,7.06,32.94,32.94,0,0,0,12.69,2.48,32.58,32.58,0,0,0,12.69-2.48,32.81,32.81,0,0,0,17.57-17.57A33.16,33.16,0,0,0,292.64,172V62.46m39.19,19H372v-19H311.64V203.81H372V183.54H331.83V142h35.06V123H331.83V81.45M448.19,81.6a33.53,33.53,0,0,0-6.83-10.21A34.45,34.45,0,0,0,430.54,64a33.82,33.82,0,0,0-13.74-2.7,36.68,36.68,0,0,0-15.31,3,31,31,0,0,0-10.73,8.26,36.21,36.21,0,0,0-6.53,12.31,53.11,53.11,0,0,0-2.1,15.09q0,13.29,4.43,22.07t17.57,14.26l20.57,8.93a10.57,10.57,0,0,1,3.53,3.6,13.77,13.77,0,0,1,1.65,5.71l0.45,9.08-0.45,8.78a17.86,17.86,0,0,1-1.8,6.68,10.49,10.49,0,0,1-4.35,4.13,17.81,17.81,0,0,1-8,1.5q-7.81,0-11.11-4.5a16.28,16.28,0,0,1-3.3-10v-6.38H381.07v7.58a32.68,32.68,0,0,0,2.7,13.29,33,33,0,0,0,18.09,17.72,37.84,37.84,0,0,0,13.81,2.48q9.68,0,16.44-3.08a27.56,27.56,0,0,0,10.73-8.71,34.07,34.07,0,0,0,5.93-13.06,75.37,75.37,0,0,0,1.73-16.59l-0.75-13.81A32.85,32.85,0,0,0,446.68,139a24.27,24.27,0,0,0-6.38-8.11,38.78,38.78,0,0,0-11-6l-15.54-6.23-6.23-3.08-3.45-3.68-1.43-5-0.45-7.13,0.68-6.83,2.1-5.71a10.9,10.9,0,0,1,4.13-4.13,13.07,13.07,0,0,1,6.91-1.65q7.73,0,11,5.18a21.39,21.39,0,0,1,3.3,12v4.58h20.19v-10a30.55,30.55,0,0,0-2.33-11.64m74.39-.15v-19H455.47v19H479V203.81h20.12V81.45h23.5Z" transform="translate(-49.44 -49.69)"/><path class="cls-3" d="M192.84,214.93l-3.71,3.28,71.23,80.63L280.59,281l-71.23-80.63-3.68,3.25-12.84,11.34m-6.48-7.34a39.11,39.11,0,0,0,6.69-5,43.12,43.12,0,0,0,6.15-6.31l-3.37-3.81L183,203.78l3.37,3.81m6.69-5a39.11,39.11,0,0,1-6.69,5l6.48,7.34,12.84-11.34-6.48-7.34a43.12,43.12,0,0,1-6.15,6.31m-19.21,3.35,0.09,0.05a51.42,51.42,0,0,0,8.37,2.95,8.48,8.48,0,0,0,4.05-1.32L183,203.78l12.84-11.34,3.37,3.81a8.61,8.61,0,0,0,1.89-3.93,52.34,52.34,0,0,0-1.83-8.5,90,90,0,0,1-11.17,11.76,88.4,88.4,0,0,1-14.25,10.32M215.52,121a83.64,83.64,0,0,0-2-10.2,81.77,81.77,0,0,0-18.12-32.9Q172.5,52,138,49.87T77.65,70.58q-25.88,22.87-28,57.4t20.73,60.37q22.82,25.83,57.31,28,25.4,1.57,46.17-10.41-4.87-2.07-5.77-4.23,0.9,2.16,5.77,4.23a88.4,88.4,0,0,0,14.25-10.32,90,90,0,0,0,11.17-11.76,1.34,1.34,0,0,1-.06-0.18q-1.47-5.17-3.56-6.32,2.09,1.16,3.56,6.32a1.34,1.34,0,0,0,.06.18q15.23-19.46,16.82-45.61a88.7,88.7,0,0,0-.55-17.2m-13.75,12.14q0,2.08-.14,4.18-1.79,28.5-23.19,47.4t-49.87,17.14q-28.53-1.77-47.41-23.14t-17.11-49.9q1.77-28.53,23.14-47.41T137.12,64.3q28.47,1.81,47.35,23.18A66.5,66.5,0,0,1,201,121.85a71.64,71.64,0,0,1,.8,11.3" transform="translate(-49.44 -49.69)"/><path id="Symbol_1_0_Layer0_0_1_STROKES" data-name="Symbol 1 0 Layer0 0 1 STROKES" class="cls-4" d="M181.75,89.89a62.64,62.64,0,0,1,15.91,34.89A70,70,0,0,1,198,136.5l0,0.59A62.85,62.85,0,0,1,176,181.94a62.85,62.85,0,0,1-47.22,16.22q-27-1.67-44.86-21.88T67.73,129A62.85,62.85,0,0,1,89.65,84.17a62.85,62.85,0,0,1,47.22-16.22A63,63,0,0,1,181.75,89.89Zm17.5,93.93a52.34,52.34,0,0,1,1.83,8.5,8.61,8.61,0,0,1-1.89,3.93l6.48,7.34,3.68-3.25L280.59,281l-20.23,17.87-71.23-80.63,3.71-3.28-6.48-7.34a8.48,8.48,0,0,1-4.05,1.32,51.42,51.42,0,0,1-8.37-2.95l-0.09-.05q-4.87-2.07-5.77-4.23m31.19-17.85a1.34,1.34,0,0,1-.06-0.18q-1.47-5.17-3.56-6.32m3.56,18.93a43.12,43.12,0,0,1-6.15,6.31,39.11,39.11,0,0,1-6.69,5L183,203.78l12.84-11.34Zm-6.35,18.68,12.84-11.34" transform="translate(-49.44 -49.69)"/><path class="cls-1" d="M176.51,128.82v-8.48a143.75,143.75,0,0,0-39-3.23l-0.23-16.82q-1.13-11.41-13.81-12.46a53.07,53.07,0,0,0-26.2,5.71q-8.78,5.25-8.71,17v32.05q0.9,8.63,9.83,12.46,13.59,5,25.37,3,4.8,6.08,16.14,6.61l-5.93,10.21-0.23,9.38a53.68,53.68,0,0,0,8.33,1.13q17.27,1.13,34.46-8.48v-8.11a83.19,83.19,0,0,1-27.17,6.68l27.17-46.69M104.45,105.1q1-5.4,7.21-6.61,9.23-1.73,9.38,5v39.11q0.15,6.46-8.48,6.08-7.36-.53-8.11-6.08V105.1m33,39,0.23-17.19q12-.45,24,0.15l-20.87,36-0.53-9.38q-5,.23-5.71-1.43a18,18,0,0,0,2.85-8.18m278.8,65.23H403.74v90.31h13V245.4H417l19.82,54.27h12.09V209.37H435.95v54.42h-0.23l-19.52-54.42m-64.78,11.71a23.35,23.35,0,0,0-1.88,9.61v47.67a23.42,23.42,0,0,0,1.88,9.76,19.6,19.6,0,0,0,5,6.76,22.23,22.23,0,0,0,7,4.2,23.23,23.23,0,0,0,15.61,0,22.23,22.23,0,0,0,7-4.2,20.94,20.94,0,0,0,5-6.76,24.26,24.26,0,0,0,1.8-9.76V230.69a24.19,24.19,0,0,0-1.8-9.61,20.55,20.55,0,0,0-5-6.91,23,23,0,0,0-7-4.13,23.23,23.23,0,0,0-15.61,0,23,23,0,0,0-7,4.13,19.28,19.28,0,0,0-5,6.91m26,2.7Q380,226,380,230.69v47.67q0,4.73-2.63,7a9.79,9.79,0,0,1-12.31,0q-2.63-2.25-2.63-7V230.69q0-4.65,2.63-6.91a9.54,9.54,0,0,1,12.31,0m-35.06-4.13V209.37H305.18v12.16H328.3L304,288.26v11.41h38.36V287.51H317.49l24.85-67.86m156.82-10.28H460.57v90.31h38.59V286.76H473.48v-26.5h22.37V248H473.48v-26.5h25.67V209.37Z" transform="translate(-49.44 -49.69)"/></svg>