
<svg xmlns="http://www.w3.org/2000/svg" version="1.1" xmlns:xlink="http://www.w3.org/1999/xlink" preserveAspectRatio="none" x="0px" y="0px" width="164px" height="164px" viewBox="0 0 164 164">
<defs>
<g id="wethy_0_Layer0_0_FILL">
<path fill="#99AAAF" stroke="none" d="
M 161.4 80.7
Q 161.4 78.4 161.3 76.15 159.8 45.65 137.8 23.65 114.15 0 80.7 0 47.25 0 23.65 23.65 0 47.25 0 80.7 0 103.8 11.3 122.2 16.3 130.45 23.65 137.8 47.25 161.4 80.7 161.4 114.15 161.4 137.8 137.8 161.4 114.15 161.4 80.7
M 154 80.7
Q 154 85.4 153.5 89.95 150.65 114.4 132.55 132.55 111.05 154 80.7 154 50.35 154 28.9 132.55 25.15 128.8 22.1 124.85 7.4 105.8 7.4 80.7 7.4 50.35 28.9 28.9 50.35 7.4 80.7 7.4 111.05 7.4 132.55 28.9 154 50.35 154 80.7
M 43.55 47.45
Q 43.55 43.55 40.75 40.75 38.05 38.05 34.1 38.05 30.2 38.05 27.4 40.75 24.7 43.55 24.7 47.45 24.7 51.4 27.4 54.1 30.2 56.9 34.1 56.9 38.05 56.9 40.75 54.1 43.55 51.4 43.55 47.45
M 102.05 79.05
L 102.25 72.95 23.9 72.65 23.9 79.05
Q 23.9 91.85 35.35 100.9 46.75 109.85 62.95 109.85 79.2 109.85 90.65 100.9 102.05 91.85 102.05 79.05
M 84.8 40.75
Q 82.1 43.55 82.1 47.45 82.1 51.4 84.8 54.1 87.6 56.9 91.5 56.9 95.4 56.9 98.15 54.1 100.9 51.4 100.9 47.45 100.9 43.55 98.15 40.75 95.4 38.05 91.5 38.05 87.6 38.05 84.8 40.75 Z"/>

<path fill="#D7E8ED" stroke="none" d="
M 22.1 124.85
Q 25.15 128.8 28.9 132.55 50.35 154 80.7 154 111.05 154 132.55 132.55 150.65 114.4 153.5 89.95 116 145.9 22.1 124.85 Z"/>

<path fill="#FFFFFF" stroke="none" d="
M 153.5 89.95
Q 154 85.4 154 80.7 154 50.35 132.55 28.9 111.05 7.4 80.7 7.4 50.35 7.4 28.9 28.9 7.4 50.35 7.4 80.7 7.4 105.8 22.1 124.85 116 145.9 153.5 89.95
M 82.1 47.45
Q 82.1 43.55 84.8 40.75 87.6 38.05 91.5 38.05 95.4 38.05 98.15 40.75 100.9 43.55 100.9 47.45 100.9 51.4 98.15 54.1 95.4 56.9 91.5 56.9 87.6 56.9 84.8 54.1 82.1 51.4 82.1 47.45
M 102.25 72.95
L 102.05 79.05
Q 102.05 91.85 90.65 100.9 79.2 109.85 62.95 109.85 46.75 109.85 35.35 100.9 23.9 91.85 23.9 79.05
L 23.9 72.65 102.25 72.95
M 40.75 40.75
Q 43.55 43.55 43.55 47.45 43.55 51.4 40.75 54.1 38.05 56.9 34.1 56.9 30.2 56.9 27.4 54.1 24.7 51.4 24.7 47.45 24.7 43.55 27.4 40.75 30.2 38.05 34.1 38.05 38.05 38.05 40.75 40.75 Z"/>
</g>
</defs>

<g transform="matrix( 1, 0, 0, 1, 1.6,1.6) ">
<g transform="matrix( 1, 0, 0, 1, 0,0) ">
<use xlink:href="#wethy_0_Layer0_0_FILL"/>
</g>
</g>
</svg>
