
<svg xmlns="http://www.w3.org/2000/svg" version="1.1" xmlns:xlink="http://www.w3.org/1999/xlink" preserveAspectRatio="none" x="0px" y="0px" width="264px" height="236px" viewBox="0 0 264 236">
<defs>
<g id="Layer1_0_FILL">
<path fill="#FFFF99" stroke="none" d="
M 126.4 47.8
Q 127.665625 46.84375 128.85 45.65 135.2 39.35 135.2 30.4 135.2 21.45 128.85 15.1 122.55 8.8 113.6 8.8 104.65 8.8 98.3 15.1 94.7439453125 18.684375 93.2 23.1 96.4056640625 26.3673828125 98.25 30.25 104 31.1 108.35 35.45 112.8 39.9 113.6 45.95 114.1 45.95 114.55 45.95 121.232421875 45.95 126.4 47.8 Z"/>

<path fill="#C5DBE1" stroke="none" d="
M 129.15 49
Q 127.828515625 48.3337890625 126.4 47.8 121.232421875 45.95 114.55 45.95 114.1 45.95 113.6 45.95 112.8 39.9 108.35 35.45 104 31.1 98.25 30.25 96.4056640625 26.3673828125 93.2 23.1 93.0982421875 22.9982421875 93 22.9 88.6 18.5 83.2 16.65 79.2 15.3 74.65 15.3 70.1 15.3 66.15 16.65 60.7 18.5 56.3 22.9 50 29.2 48.9 37.7 48.1 37.6 47.2 37.6 41.05 37.6 36.7 41.95 32.35 46.3 32.35 52.45 32.35 58.6 36.7 62.95 41.05 67.3 47.2 67.3 53.35 67.3 57.65 62.95 58.25 62.35 58.75 61.8 65.6 67.2 74.65 67.2 80.8 67.2 85.95 64.7 90.1 67.15 95.2 67.15 99.6 67.15 103.3 65.4 108.25 67.1 114.55 67.1 123.1 67.1 129.15 63.95 135.2 60.9 135.2 56.5 135.2 52.15 129.15 49 Z"/>
</g>

<g id="wethy_0_Layer0_0_FILL">
<path fill="#99AAAF" stroke="none" d="
M 161.4 80.7
Q 161.4 78.4 161.3 76.15 159.8 45.65 137.8 23.65 114.15 0 80.7 0 47.25 0 23.65 23.65 0 47.25 0 80.7 0 103.8 11.3 122.2 16.3 130.45 23.65 137.8 47.25 161.4 80.7 161.4 114.15 161.4 137.8 137.8 161.4 114.15 161.4 80.7
M 154 80.7
Q 154 85.4 153.5 89.95 150.65 114.4 132.55 132.55 111.05 154 80.7 154 50.35 154 28.9 132.55 25.15 128.8 22.1 124.85 7.4 105.8 7.4 80.7 7.4 50.35 28.9 28.9 50.35 7.4 80.7 7.4 111.05 7.4 132.55 28.9 154 50.35 154 80.7
M 43.55 47.45
Q 43.55 43.55 40.75 40.75 38.05 38.05 34.1 38.05 30.2 38.05 27.4 40.75 24.7 43.55 24.7 47.45 24.7 51.4 27.4 54.1 30.2 56.9 34.1 56.9 38.05 56.9 40.75 54.1 43.55 51.4 43.55 47.45
M 102.05 79.05
L 102.25 72.95 23.9 72.65 23.9 79.05
Q 23.9 91.85 35.35 100.9 46.75 109.85 62.95 109.85 79.2 109.85 90.65 100.9 102.05 91.85 102.05 79.05
M 84.8 40.75
Q 82.1 43.55 82.1 47.45 82.1 51.4 84.8 54.1 87.6 56.9 91.5 56.9 95.4 56.9 98.15 54.1 100.9 51.4 100.9 47.45 100.9 43.55 98.15 40.75 95.4 38.05 91.5 38.05 87.6 38.05 84.8 40.75 Z"/>

<path fill="#D7E8ED" stroke="none" d="
M 22.1 124.85
Q 25.15 128.8 28.9 132.55 50.35 154 80.7 154 111.05 154 132.55 132.55 150.65 114.4 153.5 89.95 116 145.9 22.1 124.85 Z"/>

<path fill="#FFFFFF" stroke="none" d="
M 153.5 89.95
Q 154 85.4 154 80.7 154 50.35 132.55 28.9 111.05 7.4 80.7 7.4 50.35 7.4 28.9 28.9 7.4 50.35 7.4 80.7 7.4 105.8 22.1 124.85 116 145.9 153.5 89.95
M 82.1 47.45
Q 82.1 43.55 84.8 40.75 87.6 38.05 91.5 38.05 95.4 38.05 98.15 40.75 100.9 43.55 100.9 47.45 100.9 51.4 98.15 54.1 95.4 56.9 91.5 56.9 87.6 56.9 84.8 54.1 82.1 51.4 82.1 47.45
M 102.25 72.95
L 102.05 79.05
Q 102.05 91.85 90.65 100.9 79.2 109.85 62.95 109.85 46.75 109.85 35.35 100.9 23.9 91.85 23.9 79.05
L 23.9 72.65 102.25 72.95
M 40.75 40.75
Q 43.55 43.55 43.55 47.45 43.55 51.4 40.75 54.1 38.05 56.9 34.1 56.9 30.2 56.9 27.4 54.1 24.7 51.4 24.7 47.45 24.7 43.55 27.4 40.75 30.2 38.05 34.1 38.05 38.05 38.05 40.75 40.75 Z"/>
</g>

<path id="Layer1_0_1_STROKES" stroke="#99AAAF" stroke-width="4" stroke-linejoin="round" stroke-linecap="round" fill="none" d="
M 126.4 47.825
Q 127.828515625 48.3337890625 129.15 49 135.2 52.15 135.2 56.5 135.2 60.9 129.15 63.95 123.1 67.1 114.55 67.1 108.25 67.1 103.3 65.4 99.6 67.15 95.2 67.15 90.1 67.15 85.95 64.7 80.8 67.2 74.65 67.2 65.6 67.2 58.75 61.8 58.25 62.35 57.65 62.95 53.35 67.3 47.2 67.3 41.05 67.3 36.7 62.95 32.35 58.6 32.35 52.45 32.35 46.3 36.7 41.95 41.05 37.6 47.2 37.6 48.1 37.6 48.9 37.7 50 29.2 56.3 22.9 60.7 18.5 66.15 16.65 70.1 15.3 74.65 15.3 79.2 15.3 83.2 16.65 88.6 18.5 93 22.9 93.0982421875 22.9982421875 93.2 23.1
M 126.4 47.825
Q 121.232421875 45.95 114.55 45.95 114.1 45.95 113.6 45.95 112.8 39.9 108.35 35.45 104 31.1 98.25 30.25 96.4056640625 26.3673828125 93.2 23.1"/>
</defs>

<g transform="matrix( 1, 0, 0, 1, 0,0) ">
<use xlink:href="#Layer1_0_FILL"/>

<use xlink:href="#Layer1_0_1_STROKES"/>
</g>

<g transform="matrix( 1, 0, 0, 1, 71.3,67.3) ">
<g transform="matrix( 1, 0, 0, 1, 0,0) ">
<use xlink:href="#wethy_0_Layer0_0_FILL"/>
</g>
</g>
</svg>
