
<svg xmlns="http://www.w3.org/2000/svg" version="1.1" xmlns:xlink="http://www.w3.org/1999/xlink" preserveAspectRatio="none" x="0px" y="0px" width="169px" height="197px" viewBox="0 0 169 197">
<defs>
<g id="wethy_0_Layer0_0_FILL">
<path fill="#99AAAF" stroke="none" d="
M 161.4 80.7
Q 161.4 78.4 161.3 76.15 159.8 45.65 137.8 23.65 114.15 0 80.7 0 47.25 0 23.65 23.65 0 47.25 0 80.7 0 103.8 11.3 122.2 16.3 130.45 23.65 137.8 47.25 161.4 80.7 161.4 114.15 161.4 137.8 137.8 161.4 114.15 161.4 80.7
M 154 80.7
Q 154 85.4 153.5 89.95 150.65 114.4 132.55 132.55 111.05 154 80.7 154 50.35 154 28.9 132.55 25.15 128.8 22.1 124.85 7.4 105.8 7.4 80.7 7.4 50.35 28.9 28.9 50.35 7.4 80.7 7.4 111.05 7.4 132.55 28.9 154 50.35 154 80.7
M 43.55 47.45
Q 43.55 43.55 40.75 40.75 38.05 38.05 34.1 38.05 30.2 38.05 27.4 40.75 24.7 43.55 24.7 47.45 24.7 51.4 27.4 54.1 30.2 56.9 34.1 56.9 38.05 56.9 40.75 54.1 43.55 51.4 43.55 47.45
M 102.05 79.05
L 102.25 72.95 23.9 72.65 23.9 79.05
Q 23.9 91.85 35.35 100.9 46.75 109.85 62.95 109.85 79.2 109.85 90.65 100.9 102.05 91.85 102.05 79.05
M 84.8 40.75
Q 82.1 43.55 82.1 47.45 82.1 51.4 84.8 54.1 87.6 56.9 91.5 56.9 95.4 56.9 98.15 54.1 100.9 51.4 100.9 47.45 100.9 43.55 98.15 40.75 95.4 38.05 91.5 38.05 87.6 38.05 84.8 40.75 Z"/>

<path fill="#D7E8ED" stroke="none" d="
M 22.1 124.85
Q 25.15 128.8 28.9 132.55 50.35 154 80.7 154 111.05 154 132.55 132.55 150.65 114.4 153.5 89.95 116 145.9 22.1 124.85 Z"/>

<path fill="#FFFFFF" stroke="none" d="
M 153.5 89.95
Q 154 85.4 154 80.7 154 50.35 132.55 28.9 111.05 7.4 80.7 7.4 50.35 7.4 28.9 28.9 7.4 50.35 7.4 80.7 7.4 105.8 22.1 124.85 116 145.9 153.5 89.95
M 82.1 47.45
Q 82.1 43.55 84.8 40.75 87.6 38.05 91.5 38.05 95.4 38.05 98.15 40.75 100.9 43.55 100.9 47.45 100.9 51.4 98.15 54.1 95.4 56.9 91.5 56.9 87.6 56.9 84.8 54.1 82.1 51.4 82.1 47.45
M 102.25 72.95
L 102.05 79.05
Q 102.05 91.85 90.65 100.9 79.2 109.85 62.95 109.85 46.75 109.85 35.35 100.9 23.9 91.85 23.9 79.05
L 23.9 72.65 102.25 72.95
M 40.75 40.75
Q 43.55 43.55 43.55 47.45 43.55 51.4 40.75 54.1 38.05 56.9 34.1 56.9 30.2 56.9 27.4 54.1 24.7 51.4 24.7 47.45 24.7 43.55 27.4 40.75 30.2 38.05 34.1 38.05 38.05 38.05 40.75 40.75 Z"/>
</g>

<g id="scarf_0_Layer0_0_FILL">
<path fill="#2D88B5" stroke="none" d="
M 137.9 61.85
Q 136.7 63.55 135 65.05 130.9 68.75 125.65 69.95
L 129.35 96.85 148.3 98.8 137.9 61.85
M 140.9 54.15
Q 141.05 52.8 141.05 51.4 141.05 48.8 140.55 46.05 136.55 58.05 122.75 56.5 124.1 59.55 124.85 62.55 125.75 66.25 125.65 69.95 130.9 68.75 135 65.05 136.7 63.55 137.9 61.85 140.3 58.4 140.9 54.15
M 96.65 71.25
L 96.65 57.9
Q 68.15 74.9 13.9 63.45 18.25 67.7 24 72.05 64.75 77.6 96.65 71.25
M 105.3 91.7
L 96.65 57.9 96.65 71.25 96.65 100.55 131 109.05 129.35 96.85
Q 107.45 98.9 105.3 91.7
M 141.45 42.5
Q 141.05 44.4 140.55 46.05 141.05 48.8 141.05 51.4 141.05 52.8 140.9 54.15 147.5 50 153.5 45.05 157 38.15 158.8 31.45 150.1 46.3 141.45 42.5 Z"/>

<path fill="#3399CC" stroke="none" d="
M 96.65 48.85
L 96.7 48.85
Q 96.55 48.45 96.5 48.1 95 42.25 97.5 37.3 56.45 48.65 0 36.55 0.1 49.85 13.9 63.45 68.15 74.9 96.65 57.9
L 96.65 48.85
M 116 45.85
Q 103.2 36.25 96.7 48.85
L 96.65 48.85 96.65 57.9 105.3 91.7
Q 107.45 98.9 129.35 96.85
L 125.65 69.95
Q 125.75 66.25 124.85 62.55 124.1 59.55 122.75 56.5 121.65 54.05 120.1 51.6 118.35 48.7 116 45.85
M 140.55 46.05
Q 141.05 44.4 141.45 42.5 150.1 46.3 158.8 31.45 163 15.25 157 0 144.3 14.5 128.4 24.1 132.5 26.8 135.8 33.1 138.6 38.45 139.9 43.3 140.25 44.65 140.55 46.05
M 128.4 24.1
Q 125.95 22.5 123.2 22.2 115.8 21.35 104.8 29.3 99.65 32.95 97.5 37.3 95 42.25 96.5 48.1 96.55 48.45 96.7 48.85 103.2 36.25 116 45.85 118.35 48.7 120.1 51.6 121.65 54.05 122.75 56.5 136.55 58.05 140.55 46.05 140.25 44.65 139.9 43.3 138.6 38.45 135.8 33.1 132.5 26.8 128.4 24.1 Z"/>
</g>

<path id="scarf_0_Layer0_0_1_STROKES" stroke="#297EA7" stroke-width="5" stroke-linejoin="round" stroke-linecap="round" fill="none" d="
M 13.9 63.45
Q 0.1 49.85 0 36.55 56.45 48.65 97.5 37.3 99.65 32.95 104.8 29.3 115.8 21.35 123.2 22.2 125.95 22.5 128.4 24.1 144.3 14.5 157 0 163 15.25 158.8 31.45 157 38.15 153.5 45.05 147.5 50 140.9 54.15 140.3 58.4 137.9 61.85
L 148.3 98.8 129.35 96.85 131 109.05 96.65 100.55 96.65 71.25
Q 64.75 77.6 24 72.05 18.25 67.7 13.9 63.45 Z
M 96.65 57.9
L 96.65 48.85 96.7 48.85
Q 96.55 48.45 96.5 48.1 95 42.25 97.5 37.3
M 128.4 24.1
Q 132.5 26.8 135.8 33.1 138.6 38.45 139.9 43.3 140.25 44.65 140.55 46.05 141.05 48.8 141.05 51.4 141.05 52.8 140.9 54.15
M 122.75 56.5
Q 121.65 54.05 120.1 51.6 118.35 48.7 116 45.85 103.2 36.25 96.7 48.85
M 129.35 96.85
L 125.65 69.95
Q 125.75 66.25 124.85 62.55 124.1 59.55 122.75 56.5
M 96.65 57.9
L 96.65 71.25
M 137.9 61.85
Q 136.7 63.55 135 65.05 130.9 68.75 125.65 69.95"/>
</defs>

<g transform="matrix( 1, 0, 0, 1, 1.6,4.8) ">
<g transform="matrix( 1, 0, 0, 1, 0,0) ">
<g transform="matrix( 1, 0, 0, 1, 0,0) ">
<use xlink:href="#wethy_0_Layer0_0_FILL"/>
</g>
</g>

<g transform="matrix( 1, 0, 0, 1, 3.7,75.15) ">
<g transform="matrix( 1, 0, 0, 1, 0,0) ">
<use xlink:href="#scarf_0_Layer0_0_FILL"/>

<use xlink:href="#scarf_0_Layer0_0_1_STROKES"/>
</g>
</g>
</g>
</svg>
