
<svg xmlns="http://www.w3.org/2000/svg" version="1.1" xmlns:xlink="http://www.w3.org/1999/xlink" preserveAspectRatio="none" x="0px" y="0px" width="169px" height="165px" viewBox="0 0 169 165">
<defs>
<g id="hot_0_Layer0_0_FILL">
<path fill="#99AAAF" stroke="none" d="
M 161.4 80.7
Q 161.4 78.4 161.3 76.15 159.8 45.65 137.8 23.65 114.15 0 80.7 0 47.25 0 23.65 23.65 0 47.25 0 80.7 0 103.8 11.3 122.2 16.3 130.45 23.65 137.8 47.25 161.4 80.7 161.4 114.15 161.4 137.8 137.8 161.4 114.15 161.4 80.7
M 154 80.7
Q 154 85.4 153.5 89.95 150.65 114.4 132.55 132.55 111.05 154 80.7 154 50.35 154 28.9 132.55 25.15 128.8 22.1 124.85 7.4 105.8 7.4 80.7 7.4 50.35 28.9 28.9 50.35 7.4 80.7 7.4 111.05 7.4 132.55 28.9 154 50.35 154 80.7
M 43.55 47.45
Q 43.55 43.55 40.75 40.75 38.05 38.05 34.1 38.05 30.2 38.05 27.4 40.75 24.7 43.55 24.7 47.45 24.7 51.4 27.4 54.1 30.2 56.9 34.1 56.9 38.05 56.9 40.75 54.1 43.55 51.4 43.55 47.45
M 102.2 98.65
L 102.2 96.1
Q 102.2 91 90.75 87.4 79.35 83.85 63.15 83.85 46.9 83.85 35.45 87.4 24.05 91 24.05 96.1
L 23.85 98.5 102.2 98.65
M 84.8 40.75
Q 82.1 43.55 82.1 47.45 82.1 51.4 84.8 54.1 87.6 56.9 91.5 56.9 95.4 56.9 98.15 54.1 100.9 51.4 100.9 47.45 100.9 43.55 98.15 40.75 95.4 38.05 91.5 38.05 87.6 38.05 84.8 40.75 Z"/>

<path fill="#D7E8ED" stroke="none" d="
M 22.1 124.85
Q 25.15 128.8 28.9 132.55 50.35 154 80.7 154 111.05 154 132.55 132.55 150.65 114.4 153.5 89.95 116 145.9 22.1 124.85 Z"/>

<path fill="#FFFFFF" stroke="none" d="
M 153.5 89.95
Q 154 85.4 154 80.7 154 50.35 132.55 28.9 111.05 7.4 80.7 7.4 50.35 7.4 28.9 28.9 7.4 50.35 7.4 80.7 7.4 105.8 22.1 124.85 116 145.9 153.5 89.95
M 82.1 47.45
Q 82.1 43.55 84.8 40.75 87.6 38.05 91.5 38.05 95.4 38.05 98.15 40.75 100.9 43.55 100.9 47.45 100.9 51.4 98.15 54.1 95.4 56.9 91.5 56.9 87.6 56.9 84.8 54.1 82.1 51.4 82.1 47.45
M 102.2 96.1
L 102.2 98.65 23.85 98.5 24.05 96.1
Q 24.05 91 35.45 87.4 46.9 83.85 63.15 83.85 79.35 83.85 90.75 87.4 102.2 91 102.2 96.1
M 120.95 70.85
Q 120.3 68.8 120.9 66.7 123.8 56.45 126.45 46.1 132.9 63.6 132.7 69.1 132.6 72.55 129.45 74.3 126.35 75.95 123.4 74 121.6 72.85 120.95 70.85
M 40.75 40.75
Q 43.55 43.55 43.55 47.45 43.55 51.4 40.75 54.1 38.05 56.9 34.1 56.9 30.2 56.9 27.4 54.1 24.7 51.4 24.7 47.45 24.7 43.55 27.4 40.75 30.2 38.05 34.1 38.05 38.05 38.05 40.75 40.75 Z"/>

<path fill="#99FFFF" stroke="none" d="
M 120.9 66.7
Q 120.3 68.8 120.95 70.85 121.6 72.85 123.4 74 126.35 75.95 129.45 74.3 132.6 72.55 132.7 69.1 132.9 63.6 126.45 46.1 123.8 56.45 120.9 66.7 Z"/>
</g>
</defs>

<g transform="matrix( 1, 0, 0, 1, 2.8,2) ">
<g transform="matrix( 1, 0, 0, 1, 0,0) ">
<use xlink:href="#hot_0_Layer0_0_FILL"/>
</g>
</g>
</svg>
