
<svg xmlns="http://www.w3.org/2000/svg" version="1.1" xmlns:xlink="http://www.w3.org/1999/xlink" preserveAspectRatio="none" x="0px" y="0px" width="264px" height="236px" viewBox="0 0 264 236">
<defs>
<g id="umbrella_0_Layer0_0_FILL">
<path fill="#FFFFFF" stroke="none" d="
M 74.35 147.55
Q 71 144.2 66.25 144.2 66.1 144.2 66 144.2 61.4 144.3 58.1 147.55 54.75 150.95 54.75 155.7 54.75 160.45 58.1 163.8 61.45 167.15 66.15 167.2 66 166.45 66 165.7
L 66 161.4 66 165.7
Q 66 166.45 66.15 167.2 66.2 167.2 66.25 167.2 71 167.2 74.35 163.8 77.75 160.45 77.75 155.7 77.75 150.95 74.35 147.55 Z"/>

<path fill="#474747" stroke="none" d="
M 99.55 60
Q 115 45.7 132.75 60 121.15 7.65 66.35 5.6 66.15 5.6 66 5.65 11.55 7.8 0 60 15.45 45.7 33.2 60 48.5 45.85 66 59.75 66.2 59.85 66.35 60 81.85 45.7 99.55 60
M 32.35 51.4
Q 31.05 24.5 60.75 13.4 31.05 24.5 32.35 51.4
M 65.35 50.8
L 65.35 15.2 65.35 50.8
M 99.05 51.4
Q 100.35 24.5 70.65 13.4 100.35 24.5 99.05 51.4 Z"/>
</g>

<g id="umbrella_0_Layer0_0_STROKES_1_FILL">
<path fill="#333333" stroke="none" d="
M 60.85 13.45
L 60.8 13.25 60.7 13.3 60.15 13.45 54.3 15.5 49.6 17.85
Q 47.05 19.35 45.85 20.2 43.75 21.7 42.2 23.2
L 40.45 24.9 37.35 28.75
Q 36.65 29.65 36 30.8 34.85 32.8 33.95 35.1
L 33.65 35.95 33.6 36.2 32.3 41.4 31.9 46.6 31.95 48.9 32 49.15 32.1 50.1 32.1 50.5 32.25 51.4 32.25 51.5 32.4 51.45 32.4 51.35 33 45.15 33.05 44.95 33.05 44.75 33.45 42.6 35.65 35.8
Q 35.95 35 36.6 33.8
L 37.1 32.8 40.35 28 44.55 23.6 44.8 23.45 45.2 23.05 46.95 21.65
Q 48.85 20.15 50.4 19.15
L 60.75 13.45 60.85 13.45
M 65.25 15.1
L 65.25 15.2 65.1 16.05 64.35 36.3 65.1 49.9 65.25 50.8 65.25 50.9 65.4 50.9 65.45 50.8 65.45 50.4 65.55 49.9 66.35 33 65.55 16.05 65.45 15.55 65.45 15.2 65.4 15.1 65.25 15.1
M 86.15 23.05
L 86.55 23.45 86.8 23.6 89.45 26.25
Q 90 26.8 91 28
L 92.4 29.85 94.75 33.8
Q 95.4 35 95.7 35.8
L 98 43 98.3 44.75 98.3 44.95 98.35 45.15 98.95 51.45 99.1 51.5 99.1 51.4 99.35 49.15 99.4 48.9 99.45 46.6 98.9 40.4 97.75 36.2 97.7 35.95 97.4 35.1
Q 96.5 32.8 95.35 30.8 94.7 29.65 94 28.75
L 90.9 24.9 89.15 23.2
Q 87.6 21.7 85.5 20.2 84.3 19.35 81.75 17.85
L 75.2 14.75 70.65 13.3 70.55 13.25 70.5 13.45 70.6 13.45 80.95 19.15
Q 82.5 20.15 84.4 21.65
L 86.15 23.05 Z"/>
</g>

<g id="upside_wethy_0_Layer0_0_FILL">
<path fill="#99AAAF" stroke="none" d="
M 161.4 80.7
Q 161.4 78.4 161.3 76.15 159.8 45.65 137.8 23.65 114.15 0 80.7 0 47.25 0 23.65 23.65 0 47.25 0 80.7 0 103.8 11.3 122.2 16.3 130.45 23.65 137.8 47.25 161.4 80.7 161.4 114.15 161.4 137.8 137.8 161.4 114.15 161.4 80.7
M 154 80.7
Q 154 85.4 153.5 89.95 150.65 114.4 132.55 132.55 111.05 154 80.7 154 50.35 154 28.9 132.55 25.15 128.8 22.1 124.85 7.4 105.8 7.4 80.7 7.4 50.35 28.9 28.9 50.35 7.4 80.7 7.4 111.05 7.4 132.55 28.9 154 50.35 154 80.7
M 43.55 47.45
Q 43.55 43.55 40.75 40.75 38.05 38.05 34.1 38.05 30.2 38.05 27.4 40.75 24.7 43.55 24.7 47.45 24.7 51.4 27.4 54.1 30.2 56.9 34.1 56.9 38.05 56.9 40.75 54.1 43.55 51.4 43.55 47.45
M 102.2 93.85
L 102.2 87.45
Q 102.2 74.65 90.75 65.6 79.35 56.65 63.15 56.65 46.9 56.65 35.45 65.6 24.05 74.65 24.05 87.45
L 23.85 93.55 102.2 93.85
M 84.8 40.75
Q 82.1 43.55 82.1 47.45 82.1 51.4 84.8 54.1 87.6 56.9 91.5 56.9 95.4 56.9 98.15 54.1 100.9 51.4 100.9 47.45 100.9 43.55 98.15 40.75 95.4 38.05 91.5 38.05 87.6 38.05 84.8 40.75 Z"/>

<path fill="#D7E8ED" stroke="none" d="
M 22.1 124.85
Q 25.15 128.8 28.9 132.55 50.35 154 80.7 154 111.05 154 132.55 132.55 150.65 114.4 153.5 89.95 116 145.9 22.1 124.85 Z"/>

<path fill="#FFFFFF" stroke="none" d="
M 153.5 89.95
Q 154 85.4 154 80.7 154 50.35 132.55 28.9 111.05 7.4 80.7 7.4 50.35 7.4 28.9 28.9 7.4 50.35 7.4 80.7 7.4 105.8 22.1 124.85 116 145.9 153.5 89.95
M 82.1 47.45
Q 82.1 43.55 84.8 40.75 87.6 38.05 91.5 38.05 95.4 38.05 98.15 40.75 100.9 43.55 100.9 47.45 100.9 51.4 98.15 54.1 95.4 56.9 91.5 56.9 87.6 56.9 84.8 54.1 82.1 51.4 82.1 47.45
M 102.2 87.45
L 102.2 93.85 23.85 93.55 24.05 87.45
Q 24.05 74.65 35.45 65.6 46.9 56.65 63.15 56.65 79.35 56.65 90.75 65.6 102.2 74.65 102.2 87.45
M 40.75 40.75
Q 43.55 43.55 43.55 47.45 43.55 51.4 40.75 54.1 38.05 56.9 34.1 56.9 30.2 56.9 27.4 54.1 24.7 51.4 24.7 47.45 24.7 43.55 27.4 40.75 30.2 38.05 34.1 38.05 38.05 38.05 40.75 40.75 Z"/>
</g>

<path id="umbrella_0_Layer0_0_1_STROKES" stroke="#333333" stroke-width="8.05" stroke-linejoin="round" stroke-linecap="square" fill="none" d="
M 66 59.75
Q 66.2 59.85 66.35 60 81.85 45.7 99.55 60 115 45.7 132.75 60 121.15 7.65 66.35 5.6 66.15 5.6 66 5.65 11.55 7.8 0 60 15.45 45.7 33.2 60 48.5 45.85 66 59.75
L 66 144.2
M 66 5.65
L 66 0"/>

<path id="umbrella_0_Layer0_0_2_STROKES" stroke="#99AAAF" stroke-width="8.05" stroke-linejoin="round" stroke-linecap="square" fill="none" d="
M 66 144.2
Q 66.1 144.2 66.25 144.2 71 144.2 74.35 147.55 77.75 150.95 77.75 155.7 77.75 160.45 74.35 163.8 71 167.2 66.25 167.2 66.2 167.2 66.15 167.2 61.45 167.15 58.1 163.8 54.75 160.45 54.75 155.7 54.75 150.95 58.1 147.55 61.4 144.3 66 144.2 Z"/>

<path id="umbrella_0_Layer0_0_3_STROKES" stroke="#333333" stroke-width="8.05" stroke-linejoin="round" stroke-linecap="round" fill="none" d="
M 66.15 167.2
Q 66.65 170.3 68.95 172.6 71.95 175.6 76.2 175.6 80.45 175.6 83.4 172.6 86.4 169.65 86.4 165.4 86.4 165.25 86.4 165.15
M 66 161.4
L 66 165.7
Q 66 166.45 66.15 167.2"/>
</defs>

<g transform="matrix( 1, 0, 0, 1, 3.2,5.25) ">
<g transform="matrix( 1, 0, 0, 1, 121.1,0) ">
<g transform="matrix( 1, 0, 0, 1, 0,0) ">
<use xlink:href="#umbrella_0_Layer0_0_FILL"/>

<use xlink:href="#umbrella_0_Layer0_0_1_STROKES"/>

<use xlink:href="#umbrella_0_Layer0_0_2_STROKES"/>

<use xlink:href="#umbrella_0_Layer0_0_3_STROKES"/>

<use xlink:href="#umbrella_0_Layer0_0_STROKES_1_FILL"/>
</g>
</g>

<g transform="matrix( 1, 0, 0, 1, 0,65.55) ">
<g transform="matrix( 1, 0, 0, 1, 0,0) ">
<use xlink:href="#upside_wethy_0_Layer0_0_FILL"/>
</g>
</g>
</g>
</svg>
