
<svg xmlns="http://www.w3.org/2000/svg" version="1.1" xmlns:xlink="http://www.w3.org/1999/xlink" preserveAspectRatio="none" x="0px" y="0px" width="210px" height="165px" viewBox="0 0 210 165">
<defs>
<g id="snoethy_0_Layer0_0_FILL">
<path fill="#FF8D27" stroke="none" d="
M 40 69.1
L 32.35 70.2 0 74.85 31.75 79.45 39.15 80.5 77.6 86.05
Q 85.7 74.85 78 63.65
L 40 69.1 Z"/>

<path fill="#D7E8ED" stroke="none" d="
M 164.3 132.55
Q 182.4 114.4 185.25 89.95 147.75 145.9 53.85 124.85 56.9 128.8 60.65 132.55 82.1 154 112.45 154 142.8 154 164.3 132.55 Z"/>

<path fill="#FFFFFF" stroke="none" d="
M 185.25 89.95
Q 185.75 85.4 185.75 80.7 185.75 50.35 164.3 28.9 142.8 7.4 112.45 7.4 82.1 7.4 60.65 28.9 43.4 46.15 40 69.1
L 78 63.65
Q 85.7 74.85 77.6 86.05
L 39.15 80.5
Q 39.15 80.6 39.15 80.7 39.15 105.8 53.85 124.85 147.75 145.9 185.25 89.95
M 123.25 38.05
Q 127.15 38.05 129.9 40.75 132.65 43.55 132.65 47.45 132.65 51.4 129.9 54.1 127.15 56.9 123.25 56.9 119.35 56.9 116.55 54.1 113.85 51.4 113.85 47.45 113.85 43.55 116.55 40.75 119.35 38.05 123.25 38.05
M 72.5 40.75
Q 75.3 43.55 75.3 47.45 75.3 51.4 72.5 54.1 69.8 56.9 65.85 56.9 61.95 56.9 59.15 54.1 56.45 51.4 56.45 47.45 56.45 43.55 59.15 40.75 61.95 38.05 65.85 38.05 69.8 38.05 72.5 40.75
M 74.55 98.6
Q 76.75 96.45 79.8 96.45 82.85 96.45 85 98.6 87.2 100.8 87.2 103.85 87.2 106.9 85 109.05 82.85 111.25 79.8 111.25 76.75 111.25 74.55 109.05 72.4 106.9 72.4 103.85 72.4 100.8 74.55 98.6 Z"/>

<path fill="#333333" stroke="none" d="
M 79.8 96.45
Q 76.75 96.45 74.55 98.6 72.4 100.8 72.4 103.85 72.4 106.9 74.55 109.05 76.75 111.25 79.8 111.25 82.85 111.25 85 109.05 87.2 106.9 87.2 103.85 87.2 100.8 85 98.6 82.85 96.45 79.8 96.45
M 75.3 47.45
Q 75.3 43.55 72.5 40.75 69.8 38.05 65.85 38.05 61.95 38.05 59.15 40.75 56.45 43.55 56.45 47.45 56.45 51.4 59.15 54.1 61.95 56.9 65.85 56.9 69.8 56.9 72.5 54.1 75.3 51.4 75.3 47.45
M 129.9 40.75
Q 127.15 38.05 123.25 38.05 119.35 38.05 116.55 40.75 113.85 43.55 113.85 47.45 113.85 51.4 116.55 54.1 119.35 56.9 123.25 56.9 127.15 56.9 129.9 54.1 132.65 51.4 132.65 47.45 132.65 43.55 129.9 40.75 Z"/>

<path fill="#99AAAF" stroke="none" d="
M 185.75 80.7
Q 185.75 85.4 185.25 89.95 182.4 114.4 164.3 132.55 142.8 154 112.45 154 82.1 154 60.65 132.55 56.9 128.8 53.85 124.85 39.15 105.8 39.15 80.7 39.15 80.6 39.15 80.5
L 31.75 79.45
Q 31.75 80.05 31.75 80.7 31.75 103.8 43.05 122.2 48.05 130.45 55.4 137.8 79 161.4 112.45 161.4 145.9 161.4 169.55 137.8 193.15 114.15 193.15 80.7 193.15 78.4 193.05 76.15 191.55 45.65 169.55 23.65 145.9 0 112.45 0 79 0 55.4 23.65 35.55 43.45 32.35 70.2
L 40 69.1
Q 43.4 46.15 60.65 28.9 82.1 7.4 112.45 7.4 142.8 7.4 164.3 28.9 185.75 50.35 185.75 80.7 Z"/>
</g>

<path id="snoethy_0_Layer0_0_1_STROKES" stroke="#FF6600" stroke-width="8.05" stroke-linejoin="round" stroke-linecap="round" fill="none" d="
M 31.75 79.45
L 39.15 80.5
M 32.35 70.2
L 40 69.1 78 63.65
Q 85.7 74.85 77.6 86.05
L 39.15 80.5
M 32.35 70.2
L 0 74.85 31.75 79.45"/>
</defs>

<g transform="matrix( 1, 0, 0, 1, 9.2,1.6) ">
<g transform="matrix( 1, 0, 0, 1, 0,0) ">
<use xlink:href="#snoethy_0_Layer0_0_FILL"/>

<use xlink:href="#snoethy_0_Layer0_0_1_STROKES"/>
</g>
</g>
</svg>
