
<svg xmlns="http://www.w3.org/2000/svg" version="1.1" xmlns:xlink="http://www.w3.org/1999/xlink" preserveAspectRatio="none" x="0px" y="0px" width="169px" height="165px" viewBox="0 0 169 165">
<defs>
<g id="wethy_0_Layer0_0_FILL">
<path fill="#99AAAF" stroke="none" d="
M 161.4 80.7
Q 161.4 78.4 161.3 76.15 159.8 45.65 137.8 23.65 114.15 0 80.7 0 47.25 0 23.65 23.65 0 47.25 0 80.7 0 103.8 11.3 122.2 16.3 130.45 23.65 137.8 47.25 161.4 80.7 161.4 114.15 161.4 137.8 137.8 161.4 114.15 161.4 80.7
M 154 80.7
Q 154 85.4 153.5 89.95 150.65 114.4 132.55 132.55 111.05 154 80.7 154 50.35 154 28.9 132.55 25.15 128.8 22.1 124.85 7.4 105.8 7.4 80.7 7.4 50.35 28.9 28.9 50.35 7.4 80.7 7.4 111.05 7.4 132.55 28.9 154 50.35 154 80.7
M 43.55 47.45
Q 43.55 43.55 40.75 40.75 38.05 38.05 34.1 38.05 30.2 38.05 27.4 40.75 24.7 43.55 24.7 47.45 24.7 51.4 27.4 54.1 30.2 56.9 34.1 56.9 38.05 56.9 40.75 54.1 43.55 51.4 43.55 47.45
M 102.05 79.05
L 102.25 72.95 23.9 72.65 23.9 79.05
Q 23.9 91.85 35.35 100.9 46.75 109.85 62.95 109.85 79.2 109.85 90.65 100.9 102.05 91.85 102.05 79.05
M 84.8 40.75
Q 82.1 43.55 82.1 47.45 82.1 51.4 84.8 54.1 87.6 56.9 91.5 56.9 95.4 56.9 98.15 54.1 100.9 51.4 100.9 47.45 100.9 43.55 98.15 40.75 95.4 38.05 91.5 38.05 87.6 38.05 84.8 40.75 Z"/>

<path fill="#D7E8ED" stroke="none" d="
M 22.1 124.85
Q 25.15 128.8 28.9 132.55 50.35 154 80.7 154 111.05 154 132.55 132.55 150.65 114.4 153.5 89.95 116 145.9 22.1 124.85 Z"/>

<path fill="#FFFFFF" stroke="none" d="
M 153.5 89.95
Q 154 85.4 154 80.7 154 50.35 132.55 28.9 111.05 7.4 80.7 7.4 50.35 7.4 28.9 28.9 7.4 50.35 7.4 80.7 7.4 105.8 22.1 124.85 116 145.9 153.5 89.95
M 82.1 47.45
Q 82.1 43.55 84.8 40.75 87.6 38.05 91.5 38.05 95.4 38.05 98.15 40.75 100.9 43.55 100.9 47.45 100.9 51.4 98.15 54.1 95.4 56.9 91.5 56.9 87.6 56.9 84.8 54.1 82.1 51.4 82.1 47.45
M 102.25 72.95
L 102.05 79.05
Q 102.05 91.85 90.65 100.9 79.2 109.85 62.95 109.85 46.75 109.85 35.35 100.9 23.9 91.85 23.9 79.05
L 23.9 72.65 102.25 72.95
M 40.75 40.75
Q 43.55 43.55 43.55 47.45 43.55 51.4 40.75 54.1 38.05 56.9 34.1 56.9 30.2 56.9 27.4 54.1 24.7 51.4 24.7 47.45 24.7 43.55 27.4 40.75 30.2 38.05 34.1 38.05 38.05 38.05 40.75 40.75 Z"/>
</g>

<g id="glasses_0_Layer0_0_FILL">
<path fill="#474747" stroke="none" d="
M 34.95 31.25
Q 35.75 30.65 36.25 30
L 21.4 3.2
Q 20.25 2.95 19.2 2.85
L 34.95 31.25
M 13.1 2.65
Q 12.1 2.75 11.2 3 9.5 3.45 8.3 4.7
L 8.25 4.7 25.25 35.4
Q 25.4 35.35 25.55 35.3 28.25 34.5 30.3 33.7
L 13.1 2.65
M 96 33.1
Q 96.7 32.55 97.35 31.95
L 80.1 0.85
Q 79.2 0.95 78.25 1.1
L 96 33.1
M 85.95 36.7
Q 88.8 36.5 91.35 35.6
L 72.75 2.05
Q 72.6 2.05 72.45 2.1 69.75 2.6 67.45 3.25
L 85.95 36.7 Z"/>

<path fill="#333333" stroke="none" d="
M 19.2 2.85
Q 15.75 2.35 13.1 2.65
L 30.3 33.7
Q 33.25 32.5 34.95 31.25
L 19.2 2.85
M 5.55 11.75
Q 5.25 13.75 5.25 16.25 5.25 28 11.2 32.9 17 37.75 25.25 35.4
L 8.25 4.7 3.95 4.7
Q 1.5 7.75 0 11.75
L 5.55 11.75
M 62.9 32.4
Q 68.05 33.7 78.25 36 82.35 36.95 85.95 36.7
L 67.45 3.25
Q 56.65 6.2 55 11.95 49.3 10.65 39.95 12.2 39.15 8.25 28.15 4.9 24.5 3.75 21.4 3.2
L 36.25 30
Q 36.3 30 36.3 29.95 37.75 28.15 39.35 25.45 46.95 20.75 55.65 25.05 56.45 27.4 57.1 29.25 57.7 31.1 62.9 32.4
M 91.35 35.6
Q 93.55 34.75 95.55 33.4 95.75 33.25 96 33.1
L 78.25 1.1
Q 75.65 1.5 72.75 2.05
L 91.35 35.6
M 129.85 17.65
Q 130.15 18.6 131.3 18.6 133.35 18.2 135.8 16.75 136.2 16.35 135.75 14.9 132.6 2.65 120.8 3.45
L 100.7 4.65
Q 98.85 0.85 95.15 0.3 89.8 -0.55 80.1 0.85
L 97.35 31.95
Q 102.7 26.65 102.6 14.95 102.55 13.35 102.45 11.95
L 120.65 10.7
Q 128.1 10.8 129.85 17.65 Z"/>
</g>
</defs>

<g transform="matrix( 1, 0, 0, 1, 3.2,2) ">
<g transform="matrix( 1, 0, 0, 1, 0,0) ">
<g transform="matrix( 1, 0, 0, 1, 0,0) ">
<use xlink:href="#wethy_0_Layer0_0_FILL"/>
</g>
</g>

<g transform="matrix( 1, 0, 0, 1, 10.25,27.4) ">
<g transform="matrix( 1, 0, 0, 1, 0,0) ">
<use xlink:href="#glasses_0_Layer0_0_FILL"/>
</g>
</g>
</g>
</svg>
